<?xml version="1.0" standalone="no"?>
<!DOCTYPE svg PUBLIC "-//W3C//DTD SVG 20010904//EN"
 "http://www.w3.org/TR/2001/REC-SVG-20010904/DTD/svg10.dtd">
<svg version="1.0" xmlns="http://www.w3.org/2000/svg"
 width="512.000000pt" height="512.000000pt" viewBox="0 0 512.000000 512.000000"
 preserveAspectRatio="xMidYMid meet">

<g transform="translate(0.000000,512.000000) scale(0.100000,-0.100000)"
fill="#000000" stroke="none">
<path d="M248 4712 c-259 -258 -264 -267 -213 -317 48 -49 64 -40 242 137
l163 162 -2 -1779 -3 -1780 -202 -5 c-187 -5 -203 -6 -217 -25 -18 -23 -20
-58 -6 -85 17 -32 67 -40 251 -40 l179 0 0 -243 c0 -242 0 -244 23 -265 33
-31 80 -29 106 4 20 25 21 39 21 265 l0 239 1216 2 1216 3 24 28 c29 34 30 56
3 91 l-20 26 -677 2 -677 3 0 818 0 817 102 5 c120 5 169 22 179 61 4 15 3 39
-2 53 -15 41 -48 51 -129 41 -86 -11 -219 2 -300 30 -139 48 -236 127 -424
345 -80 93 -175 198 -211 233 -74 72 -184 149 -253 178 l-47 19 0 480 0 479
163 -162 c178 -177 194 -186 242 -137 51 50 46 59 -213 317 -203 203 -242 238
-267 238 -25 0 -64 -35 -267 -238z m517 -1265 c42 -38 136 -140 209 -226 203
-239 315 -331 471 -392 l70 -28 3 -835 2 -836 -465 0 -465 0 0 1221 0 1220 50
-27 c27 -15 83 -58 125 -97z"/>
<path d="M1995 4685 c-62 -22 -92 -62 -100 -134 -4 -34 -11 -61 -16 -61 -17 0
-49 -45 -49 -70 0 -30 25 -70 45 -70 11 0 14 -35 17 -171 l3 -171 28 -24 c35
-30 59 -30 94 0 l28 24 3 165 3 164 32 14 c62 28 62 115 -1 134 -25 7 -32 14
-32 35 0 23 4 27 32 27 35 0 78 40 78 73 0 58 -89 93 -165 65z"/>
<path d="M2366 4611 c-50 -55 -71 -280 -41 -445 20 -114 40 -146 91 -146 21 0
42 8 55 21 23 23 23 37 -1 164 -12 66 -12 199 1 255 22 101 22 124 -1 148 -26
28 -80 30 -104 3z"/>
<path d="M3380 4603 c-23 -29 -23 -30 -1 -133 15 -70 13 -221 -5 -311 -16 -78
-16 -81 3 -107 14 -19 31 -28 56 -30 70 -6 95 60 104 273 8 227 -25 335 -103
335 -24 0 -39 -8 -54 -27z"/>
<path d="M2735 4575 c-40 -39 -33 -71 35 -159 l60 -78 -60 -78 c-33 -43 -65
-90 -71 -103 -23 -51 33 -109 92 -94 15 4 44 33 72 71 27 36 52 68 56 70 4 3
32 -26 61 -65 74 -97 108 -112 155 -64 39 38 32 64 -46 169 l-71 97 55 72 c30
40 58 82 61 93 16 52 -49 109 -99 86 -13 -6 -42 -36 -65 -66 -24 -31 -45 -56
-49 -56 -3 0 -24 26 -46 56 -56 78 -97 93 -140 49z"/>
<path d="M2994 3765 c-207 -45 -349 -151 -609 -455 -73 -85 -160 -180 -194
-211 -46 -42 -61 -62 -61 -83 0 -37 41 -76 79 -76 41 0 126 80 307 291 209
243 290 310 442 367 90 33 275 43 372 18 89 -22 193 -75 268 -136 l62 -51 0
-1144 0 -1145 -155 0 c-175 0 -220 -11 -231 -54 -3 -14 -3 -38 0 -52 14 -54 8
-54 828 -54 l752 0 -157 -158 c-169 -170 -177 -184 -136 -236 15 -20 29 -26
57 -26 35 0 50 14 269 233 212 212 233 236 233 267 0 31 -21 55 -233 267 -219
219 -234 233 -269 233 -28 0 -42 -6 -57 -26 -41 -52 -33 -66 136 -236 l157
-158 -522 0 -522 0 0 1058 1 1057 52 -60 c160 -185 269 -279 392 -340 139 -69
358 -102 404 -61 27 24 28 79 2 105 -13 13 -40 21 -88 26 -108 10 -162 24
-248 65 -112 54 -193 126 -359 318 -270 314 -402 413 -614 457 -83 18 -276 18
-358 0z"/>
<path d="M2580 2418 c-67 -34 -93 -79 -88 -151 5 -74 35 -106 140 -149 76 -31
94 -50 62 -62 -23 -9 -65 4 -97 31 -48 39 -107 27 -125 -25 -16 -45 8 -86 69
-121 129 -73 269 -36 315 85 15 38 15 51 4 87 -16 56 -72 106 -148 135 -62 24
-80 42 -42 42 12 0 38 -9 60 -20 64 -32 112 -22 131 27 16 41 -5 77 -63 108
-72 39 -157 44 -218 13z"/>
<path d="M3481 874 c-20 -26 -21 -38 -21 -333 0 -332 3 -348 54 -366 21 -7 34
-6 58 8 28 16 33 16 86 1 71 -21 137 -13 205 23 185 100 184 362 -2 471 -39
23 -57 27 -121 27 -41 0 -87 -4 -102 -9 l-28 -8 0 86 c0 73 -3 89 -20 106 -30
30 -83 27 -109 -6z m309 -329 c83 -43 78 -170 -8 -211 -90 -43 -193 46 -162
140 24 74 101 106 170 71z"/>
<path d="M1643 710 c-12 -5 -25 -16 -30 -25 -8 -13 -15 -14 -37 -5 -15 5 -52
10 -82 10 -96 0 -172 -45 -218 -130 -67 -124 -17 -279 111 -341 53 -25 152
-31 190 -11 19 10 25 9 47 -13 32 -32 70 -32 101 0 l25 24 0 220 c0 121 -3
227 -6 236 -6 15 -54 46 -71 44 -4 0 -18 -4 -30 -9z m-82 -199 c39 -39 40 -97
4 -134 -30 -29 -58 -36 -102 -25 -42 11 -63 42 -63 94 0 85 100 125 161 65z"/>
</g>
</svg>
